# xmcd CD database file
#
# Track frame offsets:
#	150
#	13063
#	28516
#	48301
#	62914
#	75997
#	94888
#	117103
#	133643
#	151219
#	167356
#	182618
#	203511
#	222144
#	249713
#	265317
#
# Disc length: 3740 seconds
#
# Revision: 0
# Processed by: cddbd v1.5.2PL0 Copyright (c) Steve Scherf et al.
# Submitted via: CDex 1.51
#
DISCID=cb0e9a10
DTITLE=Never Mind Jazz Band - 25 Years Old
DYEAR=2002
DGENRE=Jazz
TTITLE0=Stevedore Stomp
TTITLE1=I Found A New Baby
TTITLE2=I Wish I Could Shimmy Like My Sister Kate
TTITLE3=The Minor Drag
TTITLE4=Struggle Buggy
TTITLE5=Sau Sha Stomp
TTITLE6=Dinah
TTITLE7=West End Blues
TTITLE8=It's Tight Like That
TTITLE9=How Come You Do Me Like You Do
TTITLE10=Milenberg Joys
TTITLE11=Blue Blood Blues
TTITLE12=Somebody Loves Me
TTITLE13=Frog-i-More Rag
TTITLE14=San
TTITLE15=Black Bottom Stomp
EXTD=YEAR: 2002
EXTT0=
EXTT1=
EXTT2=
EXTT3=
EXTT4=
EXTT5=
EXTT6=
EXTT7=
EXTT8=
EXTT9=
EXTT10=
EXTT11=
EXTT12=
EXTT13=
EXTT14=
EXTT15=
PLAYORDER=
